<?xml version="1.0" standalone="no"?>
<!DOCTYPE svg PUBLIC "-//W3C//DTD SVG 20010904//EN"
 "http://www.w3.org/TR/2001/REC-SVG-20010904/DTD/svg10.dtd">
<svg version="1.0" xmlns="http://www.w3.org/2000/svg"
 width="800.000000pt" height="800.000000pt" viewBox="0 0 800.000000 800.000000"
 preserveAspectRatio="xMidYMid meet">

<g transform="translate(0.000000,800.000000) scale(0.100000,-0.100000)"
fill="#e50914" stroke="none">
<path d="M3437 5023 c-4 -3 -7 -309 -7 -680 l0 -673 60 0 60 0 0 680 0 680
-53 0 c-30 0 -57 -3 -60 -7z"/>
<path d="M3776 5018 c-4 -12 -127 -1311 -126 -1332 0 -8 96 -3 105 6 2 2 10
60 16 129 6 68 12 125 13 126 0 0 33 3 71 5 l70 3 11 -130 c7 -71 12 -131 13
-132 2 -5 121 -3 121 1 0 12 -121 1249 -126 1289 l-6 47 -79 0 c-55 0 -81 -4
-83 -12z m109 -572 c20 -237 22 -302 12 -308 -6 -4 -31 -8 -54 -8 -40 0 -43 2
-43 28 0 27 48 622 51 632 4 10 9 -51 34 -344z"/>
<path d="M4411 4413 c-29 -340 -56 -642 -59 -670 l-5 -53 55 0 55 0 6 58 c4
31 9 90 13 130 l7 72 48 0 c92 0 95 -4 103 -122 11 -150 8 -146 72 -154 30 -3
57 -4 59 -2 4 4 -119 1254 -131 1326 l-5 32 -82 0 -82 0 -54 -617z m168 30
c15 -170 27 -310 25 -313 -1 -3 -26 -4 -56 -2 l-54 4 17 231 c28 367 32 423
37 405 2 -10 16 -156 31 -325z"/>
<path d="M2603 5009 c-66 -19 -117 -124 -133 -272 -5 -51 -10 -290 -10 -532 0
-363 3 -451 15 -499 21 -81 43 -113 93 -137 62 -30 105 -20 162 39 91 95 102
182 97 780 -3 468 -5 486 -50 553 -46 68 -100 89 -174 68z m83 -210 c18 -20
19 -43 19 -499 0 -471 0 -479 -21 -507 -28 -37 -73 -39 -91 -3 -15 29 -18 874
-4 950 9 43 39 80 66 80 6 0 20 -9 31 -21z"/>
<path d="M3003 5013 l-53 -4 0 -528 c0 -290 -3 -603 -7 -696 l-6 -168 57 6
c32 3 61 9 65 12 3 4 8 139 10 301 l3 294 39 0 c31 0 42 -5 56 -27 16 -24 18
-57 21 -273 1 -135 4 -254 7 -265 4 -18 10 -20 62 -15 l57 5 -3 260 c-1 143
-7 281 -12 307 -10 58 -33 104 -56 117 -17 9 -16 11 4 33 48 51 57 99 58 303
0 187 0 191 -27 245 -17 34 -39 62 -59 74 -34 20 -117 27 -216 19z m173 -228
c9 -23 14 -72 14 -155 0 -150 -11 -184 -67 -199 -21 -6 -41 -11 -45 -11 -5 0
-8 90 -8 200 l0 200 46 0 c42 0 46 -2 60 -35z"/>
<path d="M4941 4457 c4 -544 3 -566 -15 -586 -12 -13 -31 -21 -53 -21 l-33 0
0 -94 0 -95 45 -6 c62 -10 112 17 142 76 41 79 44 157 36 739 l-8 545 -59 3
-59 3 4 -564z"/>
<path d="M5181 4678 c0 -183 4 -454 8 -603 7 -234 11 -278 29 -327 28 -78 57
-117 106 -139 109 -50 184 2 215 149 13 61 14 290 4 850 l-6 392 -59 0 -58 0
5 -227 c3 -126 7 -381 9 -568 5 -385 2 -408 -51 -413 -25 -3 -35 2 -50 24 -16
24 -19 60 -25 274 -3 135 -7 387 -7 560 -1 173 -4 325 -7 338 -6 19 -13 22
-60 22 l-54 0 1 -332z"/>
<path d="M2195 4976 l-180 -11 -3 -107 -3 -106 61 5 60 6 0 -637 c0 -350 2
-636 5 -636 2 0 26 5 53 11 l49 10 7 76 c3 42 6 324 6 628 l0 552 38 7 c20 3
49 6 65 6 l27 0 0 105 c0 58 -1 104 -2 103 -2 -1 -84 -6 -183 -12z"/>
<path d="M5635 4928 c3 -35 26 -355 50 -712 25 -358 48 -653 52 -657 10 -9
144 -31 150 -25 3 3 14 206 24 453 19 461 24 542 28 468 1 -22 17 -245 34
-495 l32 -454 69 -14 c37 -7 72 -10 76 -5 6 7 61 1312 60 1431 l0 42 -49 0
-48 0 -6 -147 c-4 -82 -11 -308 -17 -503 -6 -195 -14 -375 -17 -400 -4 -28
-20 169 -42 505 l-36 550 -60 7 c-33 3 -63 3 -66 0 -4 -4 -14 -216 -24 -472
-9 -256 -20 -494 -23 -530 -5 -48 -16 77 -40 470 -23 359 -38 537 -45 542 -7
4 -34 8 -60 8 l-48 0 6 -62z"/>
<path d="M1703 4955 c-57 -25 -106 -127 -123 -259 -14 -103 -13 -1058 1 -1131
22 -118 64 -170 138 -170 62 0 110 36 145 108 41 83 56 174 56 350 0 176 5
165 -75 148 l-30 -6 -5 -168 -5 -169 -29 -24 c-34 -30 -56 -28 -73 6 -15 30
-18 980 -3 1045 16 69 72 86 100 30 10 -22 14 -64 14 -153 l0 -124 29 6 c16 3
43 6 60 6 l30 0 -6 163 c-6 178 -20 246 -63 297 -49 57 -100 72 -161 45z"/>
<path d="M6435 4951 c-28 -13 -62 -47 -80 -81 -39 -76 -45 -142 -44 -535 0
-643 14 -780 90 -884 32 -45 94 -80 143 -81 39 0 87 52 111 121 18 50 20 92
23 534 3 493 -4 665 -34 764 -19 66 -59 128 -94 146 -36 18 -91 26 -115 16z
m75 -221 c39 -21 42 -67 47 -590 5 -489 5 -506 -14 -529 -25 -31 -64 -23 -83
16 -20 43 -29 250 -29 671 -1 381 2 413 33 434 15 10 24 10 46 -2z"/>
<path d="M1389 4923 l-46 -4 -6 -127 c-4 -70 -7 -429 -7 -798 l0 -672 60 15
60 15 2 709 c1 390 3 744 3 786 0 43 -4 77 -10 78 -5 1 -31 0 -56 -2z"/>
<path d="M1158 4903 c-16 -2 -28 -10 -28 -16 0 -53 -81 -1252 -85 -1255 -3 -3
-5 10 -5 29 0 83 -72 1215 -78 1220 -4 3 -31 4 -59 1 -51 -4 -53 -5 -53 -33 0
-17 25 -381 55 -810 30 -429 55 -786 55 -793 0 -11 15 -10 78 6 42 11 78 21
79 22 1 1 27 339 57 751 31 413 58 780 62 818 l6 67 -28 -1 c-16 -1 -41 -4
-56 -6z"/>
<path d="M6795 4119 c4 -437 9 -797 11 -800 2 -4 16 -9 31 -12 16 -3 36 -9 45
-12 17 -7 18 26 20 571 l3 579 69 -570 c37 -313 71 -584 73 -601 5 -27 11 -33
57 -48 29 -9 56 -16 59 -16 4 0 7 375 7 834 l0 834 -51 4 c-36 2 -53 -1 -57
-10 -2 -8 -3 -227 0 -488 3 -261 3 -472 1 -470 -2 2 -31 223 -63 491 -33 268
-61 489 -62 490 -2 2 -36 6 -77 10 l-73 7 7 -793z"/>
</g>
</svg>
